<?xml version="1.0" encoding="utf-8"?>
<!-- Generator: Adobe Illustrator 19.0.0, SVG Export Plug-In . SVG Version: 6.00 Build 0)  -->
<svg version="1.1" id="Layer_1" xmlns="http://www.w3.org/2000/svg" xmlns:xlink="http://www.w3.org/1999/xlink" x="0px" y="0px"
	 viewBox="0 0 685.1 155.4" style="enable-background:new 0 0 685.1 155.4;" xml:space="preserve">
<style type="text/css">
	.st0{fill:none;stroke:#000000;stroke-miterlimit:10;}
</style>
<path id="XMLID_3_" class="st0" d="M44.4,103.9l-9.9,43.1L22,143.4L54.1,13.3h15.2l32.1,130.1l-12.5,3.5l-9.9-43.1H44.4z M61.8,30.8
	h-0.4l-14,61.3h28.5L61.8,30.8z"/>
<path id="XMLID_6_" class="st0" d="M162,144.4h-12.7V13.3h27.5c22.4,0,34.9,12.4,34.9,34.8c0,24.4-13.3,37.9-30.7,37.9h-19V144.4z
	 M162,74.2l17.8-0.2c11.8-0.2,18.6-9.4,18.6-25.9c0-16.1-8.2-23-21.8-23H162V74.2z"/>
<path id="XMLID_9_" class="st0" d="M275.8,144.4h-12.7V13.3h27.5c22.4,0,34.9,12.4,34.9,34.8c0,24.4-13.3,37.9-30.7,37.9h-19V144.4z
	 M275.8,74.2l17.8-0.2c11.8-0.2,18.6-9.4,18.6-25.9c0-16.1-8.2-23-21.8-23h-14.6V74.2z"/>
<path id="XMLID_12_" class="st0" d="M385.8,103.9l-9.9,43.1l-12.5-3.5l32.1-130.1h15.2l32.1,130.1l-12.5,3.5l-9.9-43.1H385.8z
	 M403.3,30.8h-0.4l-14,61.3h28.5L403.3,30.8z"/>
<path id="XMLID_15_" class="st0" d="M510.8,25.1h-27.3V13.3h66.8v11.8h-26.7v119.3h-12.7V25.1z"/>
<path id="XMLID_17_" class="st0" d="M665.8,78.7c0,16.5,0.6,67.4-35.1,67.4c-36,0-35.1-50.5-35.1-67.4c0-21.6,1.3-67.2,35.1-67.2
	C666.4,11.5,665.8,61.4,665.8,78.7z M608.9,78.7c0,35.4,4,55,21.8,55c22,0,21.8-32.2,21.8-55c0-24.8,0.6-54.8-21.8-54.8
	S608.9,59.5,608.9,78.7z"/>
</svg>
