<?xml version="1.0" encoding="utf-8"?>
<!-- Generator: Adobe Illustrator 19.0.0, SVG Export Plug-In . SVG Version: 6.00 Build 0)  -->
<svg version="1.1" id="Layer_2" xmlns="http://www.w3.org/2000/svg" xmlns:xlink="http://www.w3.org/1999/xlink" x="0px" y="0px"
	 viewBox="0 0 1280 800" style="enable-background:new 0 0 1280 800;" xml:space="preserve">
<style type="text/css">
	.st0{fill:#878686;}
	.st1{fill:#D3D3D3;}
	.st2{fill:#CCCCCC;}
	.st3{fill:#A8A8A8;}
	.st4{fill:#6D6B6B;}
	.st5{fill:#2D668C;}
	.st6{fill:#F15A24;}
	.st7{fill:#FFFFFF;}
	.st8{font-family:'Webdings';}
	.st9{font-size:54.943px;}
	.st10{fill:#F92690;}
	.st11{font-family:'FontAwesome';}
	.st12{font-size:40.203px;}
	.st13{fill:#DBCC3E;}
	.st14{font-size:36px;}
	.st15{fill:#26EF77;}
	.st16{fill:#1088FF;}
	.st17{fill:#0AC0C9;}
	.st18{font-size:32.8997px;}
	.st19{fill:#DD3358;}
	.st20{font-size:54px;}
</style>
<g id="XMLID_93_">
	<path id="XMLID_83_" class="st0" d="M1030.8,464.2L530.2,753.7c-11.5,6.7-25.8,6.7-37.3,0l-214-123.5c-24.9-14.4-24.9-50.3,0-64.6
		l501.4-289.4c11.8-6.8,26.4-6.7,38,0.4l37.3,22.7V231L818,209.3c-11.5-6.7-25.8-6.7-37.3,0L279.3,498.7
		c-24.9,14.3-24.9,50.2-0.1,64.6L492.4,687c11.6,6.7,25.8,6.7,37.4,0l502.1-289.9c24.9-14.4,24.9-50.3,0-64.7l-60.3-34.7V365
		l59.4,34.6C1055.7,414,1055.6,449.8,1030.8,464.2z"/>
	<path id="XMLID_85_" class="st0" d="M262.2,539.9c0,0-2,48.8-1.5,54.3c-0.6,6.3-2,17.1,14.8,33.8l5.2-64.4
		C280.7,563.7,263.6,549.2,262.2,539.9z"/>
	<path id="XMLID_81_" class="st1" d="M279.3,498.7l501.3-289.4c11.5-6.7,25.7-6.7,37.3,0l213.9,123.2c24.9,14.3,24.9,50.3,0,64.7
		L529.8,687c-11.6,6.7-25.8,6.7-37.4,0L279.3,563.3C254.5,548.9,254.5,513.1,279.3,498.7z"/>
	<path id="XMLID_86_" class="st2" d="M1050.5,369l-1.5,69c0,0-5.2,18.7-18.1,26.2l0.1-64.6C1030.9,399.6,1057,380,1050.5,369z"/>
	<path id="XMLID_87_" class="st3" d="M511,692.5V759c0,0,10,2.8,15.8-1.9l504-292.9c0,0,17.9-15.6,18.1-26.2c0.2-10.6,1.5-69,1.5-69
		s-2.8,20.3-18.7,28.1C1016,405,523.9,690.8,525.1,690C526.3,689.2,524,692,511,692.5z"/>
	<path id="XMLID_84_" class="st4" d="M410.6,618.8L343,580.1c-9.3-5.3-8.8-14.5,1.2-20.3h0c10-5.8,25.8-6.2,35.1-0.8l67.2,38.8
		c9.1,5.3,8.6,14.3-1.3,20.1h0C435.4,623.6,419.8,624,410.6,618.8z"/>
	<path id="XMLID_88_" class="st5" d="M307.8,502.8l242.6,141.4c0.2,0.1,0.4,0.1,0.5,0l486.3-282c0.3-0.2,0.3-0.7,0-0.9L794.6,220.6
		c-0.2-0.1-0.4-0.1-0.5,0L307.8,501.9C307.4,502.1,307.4,502.6,307.8,502.8z"/>
</g>
<g id="XMLID_116_">
	<path id="XMLID_98_" class="st6" d="M552.6,487.6l-0.6,53.5c-0.1,9.8-10.7,15.9-19.2,10.9l-52.2-30.2L470,547.8l-9.8-37.8
		l-42.8-24.8c-4-2.3-6.4-6.5-6.4-11.1V421c0-9.8,10.6-16,19.2-11.1l116,66.4C550.2,478.6,552.7,483,552.6,487.6z"/>
	<text id="XMLID_108_" transform="matrix(1.0341 0.5218 -9.077376e-005 1 449.0013 483.5417)" class="st7 st8 st9"></text>
</g>
<g id="XMLID_119_">
	<path id="XMLID_90_" class="st10" d="M672.6,394.6l-0.6,53.5c-0.1,9.8-10.7,15.9-19.2,10.9l-52.2-30.2L590,454.8l-9.8-37.8
		l-42.8-24.8c-4-2.3-6.4-6.5-6.4-11.1V328c0-9.8,10.6-16,19.2-11.1l116,66.4C670.2,385.6,672.7,390,672.6,394.6z"/>
	<text id="XMLID_109_" transform="matrix(1.0037 0.5128 -4.890240e-002 0.9988 575.5995 394.8081)" class="st7 st11 st12"></text>
</g>
<g id="XMLID_118_">
	<path id="XMLID_89_" class="st13" d="M561.2,379.4l-0.4,43.2c-0.1,7.9-7.7,12.8-13.7,8.8L509.7,407l-7.6,20.9l-7-30.5l-30.6-20
		c-2.8-1.8-4.6-5.3-4.6-8.9v-42.9c0-7.9,7.6-12.9,13.7-9l82.9,53.6C559.5,372.1,561.2,375.6,561.2,379.4z"/>
	<text id="XMLID_110_" transform="matrix(1 0.5095 0 1 491.5876 380.4921)" class="st7 st11 st14"></text>
</g>
<g id="XMLID_123_">
	<path id="XMLID_91_" class="st15" d="M840,411.4l-0.5,50.4c-0.1,9.2-9.6,14.9-17.2,10.3l-46.8-28.5l-9.5,24.5l-8.8-35.6l-38.4-23.3
		c-3.5-2.2-5.7-6.1-5.7-10.4v-50.1c0-9.3,9.5-15.1,17.2-10.5l104,62.6C837.8,402.9,840,407,840,411.4z"/>
	<text id="XMLID_111_" transform="matrix(1 0.5095 0 1 756.8743 416.584)" class="st7 st11 st14"></text>
</g>
<g id="XMLID_124_">
	<path id="XMLID_122_" class="st7" d="M779,357.2l-0.9-0.5c-4.2-11.1-12-21.6-20.6-26.7c-0.8-0.5-1.5-0.9-2.3-1.2
		c-3.8-12.3-12.3-24.2-21.7-29.8c-10.9-6.4-19.2-1.8-20.4,9.6c-6.3-1.8-11.3,0.7-13.7,6.4c-9.1,0.1-17.5,7.4-17.5,17.5v0.2
		c0,6.3,3.4,12.2,8.9,15.3l70.7,40.3c11.9,6.8,26.3-2,26.3-15.7v-0.4C788,366,784.5,360.3,779,357.2z M738.1,335.1
		c-0.2-0.4-0.4-0.9-0.6-1.3l0.9,0.5C738.3,334.5,738.2,334.8,738.1,335.1z"/>
	<text id="XMLID_112_" transform="matrix(1 0.5095 0 1 712.0003 344.7216)" class="st16 st11 st14"></text>
</g>
<g id="XMLID_125_">
	<path id="XMLID_92_" class="st17" d="M845.8,277l-0.4,36.2c-0.1,6.6-6.4,10.7-11.5,7.4l-31.2-20.4l-6.3,17.5l-5.9-25.5l-25.6-16.7
		c-2.4-1.5-3.8-4.4-3.8-7.5V232c0-6.7,6.4-10.8,11.5-7.5l69.4,44.9C844.3,271,845.8,273.9,845.8,277z"/>
	<text id="XMLID_115_" transform="matrix(0.887 0.571 -6.786969e-002 0.9977 792.0865 280.4833)" class="st7 st11 st18"></text>
</g>
<g id="XMLID_126_">
	<path id="XMLID_117_" class="st19" d="M788.2,254.6c0.1,3.1-0.3,5.9-1.1,8.2c0.5,6.8-35.5,28.9-35.5,28.9
		c-17.2-28.7-23.1-51.2-25.1-62.4c0-0.1,0-0.1,0-0.2c-0.7-4-0.9-6.6-0.9-7.4c0-0.2,0-0.3,0-0.3c0-16.1,14-21.3,31.1-12
		C773.6,218.5,787.7,238.6,788.2,254.6z"/>
	<text id="XMLID_113_" transform="matrix(1 0.5095 0 1 737.54 261.0006)" class="st7 st11 st20"></text>
</g>
</svg>
