<?xml version="1.0" encoding="utf-8"?>
<!-- Generator: Adobe Illustrator 19.0.0, SVG Export Plug-In . SVG Version: 6.00 Build 0)  -->
<svg version="1.1" id="Layer_2" xmlns="http://www.w3.org/2000/svg" xmlns:xlink="http://www.w3.org/1999/xlink" x="0px" y="0px"
	 viewBox="0 0 510 506" style="enable-background:new 0 0 510 506;" xml:space="preserve">
<style type="text/css">
	.st0{fill:#29ABE2;}
</style>
<g id="XMLID_31_">
	<path id="XMLID_53_" class="st0" d="M279.3,115.4c31,59.8,62,120.4,92.1,180.5c32,63.8,97.4,198.6,97.4,198.6H503
		c0,0-71.7-148.6-103.8-212.5C364.6,213.1,329,143.5,293.4,75.2l-13.5-25.8L266,75C209.2,179.6,152.1,285.4,96.9,387.7l-10.1,18.7
		c-4.9,9-4.6,19.6,0.6,28.4c5.2,8.8,14.4,14,24.6,14h274.3c10.3,0,19.7-5.3,25.1-14.1c5.4-8.8,5.8-19.5,1.2-28.7
		c-11.1-21.8-22.1-43.6-33.3-65.4c-28.7-56.4-58.3-114.7-87.6-172L278,141.8l-13.9,26.6c-18.5,35.4-37.2,71.2-55.3,105.8
		c-18,34.4-36.6,70-54.9,105l-11.5,22.1l24.9,0.6c27.1,0.6,54.6,1.2,81.2,1.7c10,0.2,20.1,0.4,30.1,0.6c16.9,0.4,33.8,0.7,50.7,1.1
		l25.7,0.6l-87.7-176.4c3.5-6.7,7-13.3,10.5-20c24.8,48.6,49.7,97.6,73.9,145.3c10.7,21.1,21.4,42.2,32.1,63.2h-268l8.3-15.4
		C174.8,308.5,227.1,211.6,279.3,115.4z M193,371.3c3.5-6.7,7-13.4,10.5-20.2l9.8,20.6C206.6,371.6,199.8,371.5,193,371.3z
		 M224.6,372l-15.2-31.9c4.1-7.8,8.1-15.6,12.2-23.3l26.8,55.7C240.5,372.3,232.6,372.2,224.6,372z M304.4,373.6
		c-8.4-0.2-16.7-0.4-25.1-0.5c-2.5,0-4.9-0.1-7.4-0.2l-38.2-79.4c0.9-1.7,1.8-3.4,2.7-5.1c4.4-8.3,8.8-16.8,13.2-25.2L304.4,373.6z"
		/>
</g>
<path id="XMLID_20_" class="st0" d="M448,495c0,0-355.8-0.1-423.3-1l-5.5-0.1l-4.5-3.3c-2.9-2.2-5.7-5.3-7.5-9
	c-1.8-3.7-2.6-7.6-2.6-11.1c0-3.5,0.6-6.7,1.6-9.5c0.2-0.4,0.3-0.9,0.5-1.3l0.3-0.7l0.2-0.4l0.2-0.4l0.3-0.1l0.3,0c0,0,0,0,0,0
	l-0.2,0l0.1,0c0,0,0.1,0,0.1,0c0,0,0,0,0,0c0,0-0.2,0-0.2,0c0.1-0.2,0.2-0.6,0.5-1.3l0-0.2l0.9-1.7l7.5-13.4l14.9-27L253.3,9.8
	l21,32.9L45.1,460.3l0,0l386,2.7L448,495z"/>
</svg>
